<svg width="125" height="32" viewBox="0 0 125 32" fill="none" xmlns="http://www.w3.org/2000/svg">
<path d="M116.697 -2.81152e-06H7.59131C7.29935 -2.81152e-06 7.01089 -2.81143e-06 6.71971 0.00159719C6.47596 0.00319719 6.23415 0.00784519 5.98806 0.0117572C5.45343 0.0180786 4.92007 0.0653382 4.3926 0.153125C3.86586 0.242823 3.35563 0.41193 2.87916 0.654725C2.40326 0.899575 1.96843 1.21773 1.59042 1.59765C1.21043 1.97651 0.893681 2.41441 0.652349 2.89453C0.410351 3.37368 0.242548 3.88715 0.154737 4.41718C0.0660915 4.94655 0.0183904 5.48201 0.0120621 6.01878C0.00467357 6.26406 0.00389331 6.51016 0 6.75547V25.2469C0.00389331 25.4953 0.00467357 25.7359 0.0120541 25.9844C0.0183844 26.5211 0.0660855 27.0566 0.154729 27.5859C0.242298 28.1163 0.41011 28.63 0.652341 29.1094C0.893566 29.5879 1.21036 30.024 1.59042 30.4008C1.96699 30.7824 2.40211 31.1008 2.87916 31.3438C3.35563 31.5872 3.8658 31.7573 4.3926 31.8484C4.92016 31.9355 5.45347 31.9828 5.98806 31.9898C6.23415 31.9953 6.47596 31.9984 6.71971 31.9984C7.01088 32 7.29936 32 7.59131 32H116.697C116.983 32 117.274 32 117.56 31.9984C117.802 31.9984 118.051 31.9953 118.294 31.9898C118.827 31.9831 119.36 31.9359 119.886 31.8484C120.415 31.7567 120.927 31.5866 121.406 31.3438C121.882 31.1006 122.317 30.7823 122.693 30.4008C123.072 30.0226 123.39 29.5868 123.634 29.1094C123.874 28.6297 124.04 28.116 124.127 27.5859C124.216 27.0565 124.265 26.5212 124.275 25.9844C124.278 25.7359 124.278 25.4953 124.278 25.2469C124.284 24.9562 124.284 24.6672 124.284 24.3718V7.6289C124.284 7.33593 124.284 7.04531 124.278 6.75547C124.278 6.51016 124.278 6.26406 124.275 6.01875C124.265 5.48194 124.216 4.94659 124.127 4.41715C124.04 3.88742 123.874 3.374 123.634 2.89449C123.142 1.93215 122.363 1.14882 121.406 0.654653C120.927 0.412451 120.415 0.24339 119.886 0.153053C119.36 0.0648794 118.828 0.0176034 118.294 0.0116452C118.051 0.00774119 117.802 0.00305319 117.56 0.00149319C117.274 -0.000106812 116.983 -0.000106812 116.697 -0.000106812V-2.81152e-06Z" fill="#A6A6A6"/>
<path d="M6.72359 31.3C6.48101 31.3 6.24425 31.2969 6.00361 31.2914C5.50503 31.2849 5.00761 31.2413 4.51544 31.161C4.05652 31.0815 3.61194 30.9338 3.19638 30.7226C2.78463 30.5132 2.40908 30.2386 2.08412 29.9094C1.75446 29.584 1.47999 29.2066 1.27161 28.7922C1.06094 28.375 0.915134 27.9279 0.839288 27.4664C0.75738 26.9705 0.713065 26.469 0.706724 25.9664C0.701677 25.7977 0.695068 25.2359 0.695068 25.2359V6.75547C0.695068 6.75547 0.702107 6.20234 0.706764 6.03984C0.712836 5.53798 0.756893 5.03732 0.838556 4.54218C0.914542 4.0794 1.06046 3.631 1.27125 3.2125C1.47886 2.79835 1.7518 2.42069 2.07948 2.09414C2.40679 1.76449 2.78354 1.48848 3.19599 1.27616C3.6106 1.06567 4.05433 0.918983 4.51233 0.841013C5.00612 0.759866 5.50526 0.715994 6.00557 0.709765L6.72398 0.699997H117.556L118.283 0.710157C118.779 0.716076 119.273 0.759557 119.763 0.840229C120.225 0.919177 120.674 1.06689 121.093 1.27851C121.919 1.70639 122.592 2.38333 123.016 3.21445C123.223 3.63006 123.367 4.0748 123.442 4.53359C123.524 5.03279 123.571 5.53739 123.58 6.04336C123.582 6.26992 123.582 6.51328 123.582 6.75547C123.589 7.05547 123.589 7.34101 123.589 7.6289V24.3718C123.589 24.6625 123.589 24.9461 123.582 25.232C123.582 25.4922 123.582 25.7305 123.579 25.9758C123.57 26.4727 123.525 26.9683 123.443 27.4586C123.369 27.9234 123.224 28.374 123.013 28.7946C122.804 29.2045 122.531 29.5786 122.205 29.9031C121.88 30.2341 121.503 30.5104 121.091 30.7211C120.672 30.9339 120.225 31.0822 119.763 31.161C119.27 31.2417 118.773 31.2853 118.274 31.2914C118.041 31.2969 117.797 31.3 117.56 31.3L116.697 31.3016L6.72359 31.3Z" fill="black"/>
<path d="M19.7204 16.2405C19.7378 14.8834 20.446 13.6297 21.5967 12.9189C20.8674 11.8724 19.6898 11.2327 18.419 11.1928C17.082 11.0517 15.7859 11.9966 15.1046 11.9966C14.4101 11.9966 13.3612 11.2068 12.2316 11.2301C10.7454 11.2784 9.39342 12.1068 8.67035 13.4124C7.13054 16.0911 8.2791 20.028 9.75411 22.1933C10.4921 23.2535 11.3546 24.4379 12.4831 24.3959C13.5875 24.3499 13.9999 23.6883 15.333 23.6883C16.6536 23.6883 17.0406 24.3959 18.192 24.3692C19.377 24.3499 20.1237 23.3042 20.8358 22.2339C21.366 21.4784 21.774 20.6434 22.0447 19.7599C20.6372 19.1617 19.7221 17.776 19.7204 16.2405Z" fill="white"/>
<path d="M17.5456 9.76871C18.1917 8.98934 18.51 7.9876 18.4329 6.97621C17.4458 7.08039 16.534 7.55444 15.8791 8.3039C15.2325 9.04335 14.9049 10.0107 14.9685 10.993C15.9689 11.0034 16.9187 10.5521 17.5456 9.76871Z" fill="white"/>
<path d="M36.7428 24.3969V17.0852H36.6946L33.7144 24.3211H32.5768L29.5888 17.0852H29.5414V24.3969H28.1434V14.4625H29.9185L33.118 22.3039H33.1724L36.3657 14.4625H38.147V24.3969L36.7428 24.3969Z" fill="white"/>
<path fill-rule="evenodd" clip-rule="evenodd" d="M42.0073 20.2039C40.2937 20.307 39.328 21.0719 39.328 22.3383C39.3287 22.9574 39.5894 23.5474 40.046 23.9631C40.5026 24.3787 41.1127 24.5814 41.7259 24.5211C42.6663 24.5325 43.5383 24.0283 44.0009 23.2055H44.0351V24.3969H45.4533V19.4328C45.4533 18.0078 44.3158 17.0648 42.5959 17.0648C40.9111 17.0648 39.6981 17.9937 39.6569 19.3023H41.0409C41.2178 18.6277 41.8666 18.1908 42.5547 18.2828C43.4528 18.2828 43.9807 18.7375 43.9807 19.5429V20.0937L42.0073 20.2039ZM43.9807 21.1266V21.6844H43.9807C43.9611 22.1522 43.7543 22.5922 43.4072 22.9047C43.0601 23.2171 42.6021 23.3754 42.1372 23.3437C41.3426 23.3437 40.8216 22.9305 40.8216 22.2969C40.8216 21.6773 41.3216 21.2922 42.2056 21.2367L43.9807 21.1266Z" fill="white"/>
<path d="M51.6665 19.6461C51.5323 18.8246 50.7934 18.2439 49.9676 18.3109C48.8301 18.3109 48.0767 19.268 48.0767 20.7758C48.0767 22.318 48.8371 23.2469 49.9808 23.2469C50.7965 23.3289 51.5349 22.7591 51.6665 21.9461H53.0916C52.9073 23.5035 51.522 24.6301 49.9676 24.4867C47.9119 24.4867 46.5691 23.075 46.5691 20.7758C46.5691 18.5242 47.9118 17.0648 49.9536 17.0648C51.5195 16.9314 52.9058 18.0766 53.0785 19.6461H51.6665Z" fill="white"/>
<path fill-rule="evenodd" clip-rule="evenodd" d="M58.9378 21.7117H62.7065L63.6107 24.3969H65.2342L61.6646 14.4625H60.0061L56.4365 24.3969H58.0328L58.9378 21.7117ZM62.3154 20.4727H59.3281L60.8016 16.1148H60.8428L62.3154 20.4727Z" fill="white"/>
<path fill-rule="evenodd" clip-rule="evenodd" d="M69.935 24.4727C71.7443 24.4727 72.9432 23.0266 72.9432 20.7758C72.9432 18.5313 71.7373 17.0781 69.9078 17.0781C68.9664 17.0476 68.0846 17.5396 67.6126 18.3586H67.5854V17.1539H66.1532V26.793H67.6328V23.2055H67.667C68.1189 24.0296 68.9998 24.5218 69.935 24.4727ZM69.5175 18.3453C70.6682 18.3453 71.4224 19.3094 71.4224 20.7758C71.4224 22.2555 70.6682 23.2125 69.5175 23.2125C68.387 23.2125 67.6266 22.2352 67.6266 20.7758C67.6266 19.3297 68.387 18.3453 69.5175 18.3453Z" fill="white"/>
<path fill-rule="evenodd" clip-rule="evenodd" d="M77.8688 24.4727C79.6781 24.4727 80.877 23.0266 80.877 20.7758C80.877 18.5313 79.6711 17.0781 77.8416 17.0781C76.9002 17.0476 76.0183 17.5396 75.5463 18.3586H75.5191V17.1539H74.0869V26.793H75.5666V23.2055H75.6008C76.0527 24.0296 76.9336 24.5218 77.8688 24.4727ZM77.4513 18.3453C78.602 18.3453 79.3562 19.3094 79.3562 20.7758H79.3562C79.3562 22.2555 78.602 23.2125 77.4513 23.2125C76.3208 23.2125 75.5604 22.2352 75.5604 20.7758C75.5604 19.3297 76.3208 18.3453 77.4513 18.3453Z" fill="white"/>
<path d="M86.1206 21.6289C86.2303 22.6141 87.1827 23.2609 88.4843 23.2609C89.7314 23.2609 90.6287 22.614 90.6287 21.7257C90.6287 20.9546 90.0875 20.4929 88.8062 20.1765L87.5248 19.8664C85.7093 19.4257 84.8665 18.5726 84.8665 17.1882C84.8665 15.4742 86.3531 14.2968 88.4641 14.2968C90.5532 14.2968 91.9854 15.4742 92.0336 17.1882H90.54C90.4506 16.1968 89.635 15.5984 88.443 15.5984C87.2511 15.5984 86.4355 16.2039 86.4355 17.0851C86.4355 17.7875 86.9564 18.2007 88.2308 18.5171L89.3201 18.7859C91.3486 19.2679 92.1915 20.0867 92.1915 21.5398C92.1915 23.3984 90.7181 24.5624 88.3746 24.5624C86.182 24.5624 84.7016 23.4257 84.606 21.6288L86.1206 21.6289Z" fill="white"/>
<path d="M95.3847 15.4398V17.1539H96.7555V18.3312H95.3847V22.3242C95.3847 22.9445 95.6592 23.2336 96.2618 23.2336C96.4245 23.2307 96.587 23.2193 96.7485 23.1992V24.3695C96.4776 24.4204 96.2022 24.4434 95.9267 24.4383C94.4673 24.4383 93.8981 23.8875 93.8981 22.4828V18.3312H92.85V17.1539H93.8981V15.4398H95.3847Z" fill="white"/>
<path fill-rule="evenodd" clip-rule="evenodd" d="M100.967 17.0648C98.8843 17.0648 97.5486 18.4969 97.5486 20.7758C97.5486 23.0609 98.8711 24.4867 100.967 24.4867C103.064 24.4867 104.387 23.0609 104.387 20.7758C104.387 18.4969 103.057 17.0648 100.967 17.0648ZM100.967 18.2898C102.166 18.2898 102.879 19.2125 102.879 20.7758H102.879C102.879 22.3453 102.166 23.2609 100.967 23.2609C99.7684 23.2609 99.0554 22.3453 99.0554 20.7758C99.0554 19.2195 99.7684 18.2898 100.967 18.2898Z" fill="white"/>
<path d="M105.608 17.1539H107.019V18.3867H107.053C107.25 17.5931 107.973 17.0469 108.787 17.0781C108.957 17.0775 109.127 17.0961 109.294 17.1336V18.5242C109.079 18.4581 108.854 18.4278 108.629 18.4344C108.194 18.4166 107.773 18.5908 107.477 18.9112C107.18 19.2316 107.038 19.6661 107.087 20.1008V24.3969H105.608L105.608 17.1539Z" fill="white"/>
<path fill-rule="evenodd" clip-rule="evenodd" d="M113.011 24.4867C114.642 24.4867 115.916 23.5844 116.115 22.2695L114.71 22.2695C114.44 22.9416 113.763 23.3559 113.045 23.2883C112.507 23.3082 111.986 23.0947 111.615 22.7022C111.244 22.3097 111.059 21.7759 111.106 21.2367V21.1469H116.197V20.6375C116.197 18.4414 114.943 17.0648 112.949 17.0648C110.921 17.0648 109.613 18.5383 109.613 20.8101C109.613 23.075 110.914 24.4867 113.011 24.4867ZM111.113 20.1078H111.113L111.113 20.1078C111.113 20.1078 111.113 20.1078 111.113 20.1078ZM114.717 20.1078H111.113C111.112 19.6188 111.305 19.1495 111.65 18.8043C111.995 18.4591 112.462 18.2666 112.949 18.2695C113.432 18.2591 113.897 18.4515 114.233 18.8005C114.568 19.1495 114.744 19.6233 114.717 20.1078Z" fill="white"/>
<path fill-rule="evenodd" clip-rule="evenodd" d="M31.7928 7.63911C31.3598 7.17965 30.7445 6.93952 30.1164 6.98481H28.4004V11.7583H30.1164C31.5315 11.7583 32.3518 10.8817 32.3518 9.35668C32.431 8.72893 32.2258 8.09857 31.7928 7.63911ZM30.034 11.0832H29.1383V7.65938H30.034C30.4805 7.63448 30.9147 7.81139 31.2179 8.14172C31.5211 8.47205 31.6615 8.92123 31.6007 9.36641C31.6662 9.81344 31.5278 10.2664 31.2239 10.5994C30.92 10.9325 30.4829 11.1102 30.034 11.0832Z" fill="white"/>
<path fill-rule="evenodd" clip-rule="evenodd" d="M33.9804 8.34289C33.4319 8.6849 33.1238 9.30979 33.1853 9.95548C33.1226 10.6019 33.4305 11.228 33.9795 11.5707C34.5285 11.9135 35.2235 11.9135 35.7725 11.5707C36.3215 11.228 36.6293 10.6019 36.5667 9.95548C36.6282 9.30979 36.32 8.6849 35.7715 8.34289C35.223 8.00088 34.5289 8.00088 33.9804 8.34289ZM34.8771 8.71799C35.4898 8.71799 35.8389 9.17463 35.8389 9.95548H35.8389C35.8389 10.7395 35.4898 11.1957 34.8771 11.1957C34.2621 11.1957 33.9161 10.7426 33.9161 9.95549C33.9161 9.17463 34.2621 8.71799 34.8771 8.71799Z" fill="white"/>
<path d="M41.0615 11.7582H40.3275L39.5866 9.10507H39.5306L38.7927 11.7582H38.0657L37.0775 8.15585H37.7952L38.4374 10.9047H38.4903L39.2274 8.15585H39.9061L40.6432 10.9047H40.6992L41.3383 8.15585H42.0459L41.0615 11.7582Z" fill="white"/>
<path d="M42.877 8.15587H43.5581V8.72813H43.611C43.7949 8.30679 44.2245 8.04906 44.6809 8.08633C45.0342 8.05964 45.3805 8.19584 45.6219 8.45649C45.8633 8.71714 45.9736 9.07395 45.9218 9.42617V11.7582H45.2142V9.6047C45.2142 9.02579 44.9639 8.7379 44.4406 8.7379C44.2009 8.72668 43.9683 8.8212 43.8038 8.99666C43.6392 9.17213 43.5592 9.41105 43.5846 9.65079V11.7582H42.877L42.877 8.15587Z" fill="white"/>
<path d="M47.0492 6.7496H47.7567V11.7582H47.0492V6.7496Z" fill="white"/>
<path fill-rule="evenodd" clip-rule="evenodd" d="M49.5355 8.34289C48.9869 8.6849 48.6788 9.30979 48.7403 9.95548C48.6776 10.6019 48.9855 11.228 49.5345 11.5707C50.0835 11.9135 50.7785 11.9135 51.3275 11.5707C51.8765 11.228 52.1843 10.6019 52.1217 9.95548C52.1832 9.30979 51.875 8.6849 51.3265 8.34289C50.778 8.00088 50.084 8.00088 49.5355 8.34289ZM50.4322 8.71799C51.0448 8.71799 51.3939 9.17463 51.3939 9.95548H51.3939C51.3939 10.7395 51.0448 11.1957 50.4322 11.1957C49.8172 11.1957 49.4712 10.7426 49.4712 9.95549C49.4712 9.17463 49.8171 8.71799 50.4322 8.71799Z" fill="white"/>
<path fill-rule="evenodd" clip-rule="evenodd" d="M54.2 9.66406C53.3471 9.71719 52.8666 10.091 52.8666 10.7395C52.8678 11.0469 52.9984 11.3395 53.226 11.5449C53.4537 11.7503 53.7573 11.8494 54.0616 11.8176C54.4958 11.8377 54.9071 11.6217 55.1385 11.252H55.1945V11.7582H55.8756V9.29688C55.8756 8.53593 55.3686 8.08633 54.4698 8.08633C53.6565 8.08633 53.0773 8.48321 53.005 9.10196H53.69C53.7685 8.84727 54.0422 8.70157 54.4372 8.70157C54.9208 8.70157 55.1711 8.91641 55.1711 9.29688V9.60781L54.2 9.66406ZM55.1711 10.1305V10.4316C55.1557 10.6612 55.0481 10.8747 54.8731 11.0231C54.6981 11.1716 54.4707 11.2423 54.2428 11.2191C53.8579 11.2191 53.578 11.0305 53.578 10.7062C53.578 10.3887 53.8019 10.2199 54.2956 10.1867L55.1711 10.1305Z" fill="white"/>
<path fill-rule="evenodd" clip-rule="evenodd" d="M58.2936 8.0961C57.3878 8.0961 56.8055 8.8172 56.8055 9.95548C56.8055 11.0965 57.3816 11.8176 58.2937 11.8176C58.756 11.8347 59.1897 11.5926 59.4195 11.1891H59.4755V11.7582H60.1535V6.7496H59.4459V8.7281H59.3931C59.1794 8.32118 58.751 8.07492 58.2936 8.0961ZM58.4943 11.1793C57.8948 11.1793 57.5364 10.7195 57.5364 9.95548H57.5363C57.5363 9.19766 57.8987 8.73477 58.4943 8.73477C59.0867 8.73477 59.4592 9.20782 59.4592 9.9586C59.4592 10.7129 59.0906 11.1793 58.4943 11.1793Z" fill="white"/>
<path fill-rule="evenodd" clip-rule="evenodd" d="M63.8761 8.34282C63.3276 8.68483 63.0194 9.30974 63.0808 9.95547C63.0183 10.6019 63.3262 11.228 63.8752 11.5707C64.4242 11.9134 65.1192 11.9134 65.6683 11.5707C66.2173 11.228 66.5252 10.6019 66.4626 9.95547C66.5241 9.30974 66.2159 8.68483 65.6673 8.34282C65.1188 8.0008 64.4247 8.0008 63.8761 8.34282ZM64.7727 8.71798C65.3854 8.71798 65.7345 9.17462 65.7345 9.95547H65.7345C65.7345 10.7395 65.3853 11.1957 64.7727 11.1957C64.1577 11.1957 63.8117 10.7426 63.8117 9.95548C63.8117 9.17462 64.1577 8.71798 64.7727 8.71798Z" fill="white"/>
<path d="M67.412 8.15587H68.0931V8.72813H68.146C68.3298 8.30679 68.7595 8.04906 69.2158 8.08633C69.5692 8.05964 69.9155 8.19584 70.1569 8.45649C70.3983 8.71714 70.5086 9.07395 70.4567 9.42617V11.7582H69.7492V9.6047C69.7492 9.02579 69.4989 8.7379 68.9756 8.7379C68.7359 8.72668 68.5033 8.8212 68.3388 8.99666C68.1742 9.17213 68.0941 9.41105 68.1195 9.65079V11.7582H67.412V8.15587Z" fill="white"/>
<path d="M74.4547 7.25899V8.17227H75.2315V8.7711H74.4547V10.6234C74.4547 11.0008 74.6095 11.166 74.9617 11.166C75.0519 11.1657 75.1419 11.1603 75.2315 11.1496V11.7418C75.1044 11.7646 74.9757 11.7768 74.8466 11.7781C74.0598 11.7781 73.7464 11.5 73.7464 10.8055V8.77107H73.1773V8.17224H73.7464V7.25899H74.4547Z" fill="white"/>
<path d="M76.1979 6.7496H76.8993V8.73476H76.9552C77.1479 8.30974 77.5851 8.05167 78.0484 8.08945C78.3997 8.07024 78.7413 8.20945 78.9801 8.46915C79.2189 8.72885 79.3299 9.08201 79.2831 9.43242V11.7582H78.5748V9.6078C78.5748 9.03241 78.3081 8.741 77.8082 8.741C77.5621 8.72072 77.3195 8.81064 77.1455 8.98672C76.9715 9.1628 76.8836 9.40709 76.9055 9.65428V11.7582H76.198L76.1979 6.7496Z" fill="white"/>
<path fill-rule="evenodd" clip-rule="evenodd" d="M81.8552 11.8277C82.5558 11.9041 83.2102 11.4651 83.4086 10.7855L82.7275 10.7855C82.5577 11.0915 82.2208 11.264 81.8746 11.2222C81.6076 11.2252 81.3518 11.1149 81.17 10.9184C80.9883 10.722 80.8974 10.4576 80.9198 10.1902V10.1504H83.4514V9.90233C83.4514 8.77113 82.8496 8.08633 81.852 8.08633C81.3728 8.08223 80.9153 8.28728 80.5982 8.64836C80.281 9.00945 80.1354 9.49104 80.199 9.96837C80.1337 10.4444 80.2798 10.9252 80.5988 11.2832C80.9177 11.6413 81.3771 11.8404 81.8552 11.8277ZM82.7306 9.62461H80.9198C80.9166 9.37621 81.0133 9.13703 81.1881 8.96132C81.3629 8.78562 81.6009 8.68829 81.8481 8.69141C82.0921 8.68579 82.327 8.78394 82.495 8.96165C82.6631 9.13937 82.7487 9.38013 82.7306 9.62461Z" fill="white"/>
</svg>
