<svg width="189" height="32" viewBox="0 0 189 32" fill="none" xmlns="http://www.w3.org/2000/svg">
<path d="M77.2744 24.736H72.1395V10.4H72.0277L66.355 24.5067H63.0196L57.3629 10.4H57.2324V24.744H52.1028V1.76535H58.8296L64.6247 16.5334H64.7525L70.5423 1.76535H77.2797L77.2744 24.736Z" fill="#3D3DD8"/>
<path d="M98.0485 7.39999V24.7333H92.5835V21.4587H92.4717C91.6447 23.864 89.965 25.0667 87.4326 25.0667C85.5479 25.0667 84.0199 24.4827 82.8487 23.3147C81.6774 22.1467 81.0918 20.5547 81.0918 18.5387V7.39999H86.7351V17.3173C86.7351 18.336 86.9836 19.1164 87.4805 19.6587C87.7502 19.9334 88.0755 20.147 88.4346 20.285C88.7938 20.423 89.1783 20.4822 89.5622 20.4587C89.9535 20.475 90.3435 20.4035 90.7037 20.2494C91.0638 20.0953 91.385 19.8625 91.6438 19.568C92.1886 18.9022 92.4667 18.0572 92.4238 17.1973V7.39999H98.0485Z" fill="#3D3DD8"/>
<path d="M109.892 31.264C107.466 31.264 105.503 30.7653 104.003 29.768C102.504 28.7707 101.675 27.4702 101.517 25.8667H106.969C107.048 26.1322 107.18 26.3788 107.357 26.5912C107.535 26.8036 107.754 26.9772 108.002 27.1013C108.622 27.4311 109.317 27.5929 110.019 27.5707C111.084 27.5707 111.897 27.3111 112.458 26.792C112.743 26.5236 112.966 26.1966 113.114 25.8334C113.261 25.4702 113.327 25.0795 113.31 24.688V21.504H113.198C112.826 22.4533 112.138 23.2441 111.249 23.7413C110.244 24.3248 109.099 24.62 107.938 24.5947C105.84 24.5947 104.168 23.8355 102.923 22.3173C101.677 20.7991 101.056 18.6978 101.059 16.0133C101.059 13.2436 101.68 11.0729 102.923 9.50135C104.165 7.92979 105.868 7.14402 108.034 7.14402C109.176 7.11975 110.298 7.43931 111.257 8.06135C112.151 8.63658 112.846 9.47493 113.246 10.4613H113.355V7.40001H118.945V24.5467C118.97 25.5055 118.755 26.4553 118.321 27.3102C117.887 28.1651 117.247 28.898 116.459 29.4426C114.794 30.6569 112.605 31.264 109.892 31.264ZM110.067 20.424C110.529 20.4435 110.988 20.35 111.406 20.1516C111.823 19.9532 112.186 19.6559 112.463 19.2853C113.04 18.5262 113.329 17.4516 113.331 16.0613C113.333 14.6711 113.041 13.5751 112.455 12.7733C112.182 12.3971 111.824 12.0909 111.411 11.8798C110.997 11.6686 110.539 11.5586 110.075 11.5586C109.611 11.5586 109.153 11.6686 108.74 11.8798C108.326 12.0909 107.968 12.3971 107.695 12.7733C107.119 13.5787 106.83 14.6773 106.83 16.0693C106.83 17.4613 107.113 18.536 107.679 19.2933C107.955 19.6626 108.317 19.9587 108.733 20.1558C109.149 20.3529 109.607 20.445 110.067 20.424V20.424Z" fill="#3D3DD8"/>
<path d="M127.631 24.992C126.117 25.0349 124.643 24.5067 123.499 23.512C122.956 23.0473 122.522 22.467 122.231 21.8133C121.939 21.1596 121.797 20.4491 121.814 19.7333C121.814 18.1191 122.412 16.8613 123.609 15.96C124.805 15.0587 126.532 14.5387 128.791 14.4L132.843 14.16V13.1733C132.859 12.8758 132.807 12.5785 132.692 12.304C132.576 12.0295 132.399 11.7851 132.175 11.5893C131.663 11.1907 131.025 10.99 130.378 11.024C129.732 10.9967 129.095 11.178 128.56 11.5413C128.338 11.6951 128.149 11.8926 128.006 12.1219C127.863 12.3511 127.768 12.6073 127.727 12.8747H122.656C122.676 12.0317 122.891 11.205 123.286 10.4602C123.681 9.71534 124.243 9.07295 124.929 8.58401C126.359 7.51734 128.271 6.98401 130.665 6.98401C132.973 6.98401 134.831 7.52267 136.242 8.60001C136.913 9.08086 137.457 9.71886 137.825 10.4584C138.194 11.1979 138.376 12.0164 138.356 12.8427V24.7333H132.875V22.2667H132.763C132.288 23.1343 131.555 23.8323 130.665 24.264C129.727 24.7472 128.686 24.9969 127.631 24.992V24.992ZM129.638 21.1067C130.454 21.1277 131.253 20.87 131.903 20.376C132.199 20.164 132.44 19.8836 132.604 19.5586C132.769 19.2336 132.852 18.8737 132.848 18.5093V17.3147L129.702 17.5227C129.091 17.5333 128.497 17.7305 128.001 18.088C127.809 18.2341 127.654 18.4235 127.549 18.6408C127.444 18.8582 127.392 19.0973 127.397 19.3387C127.388 19.5868 127.439 19.8333 127.546 20.0574C127.652 20.2816 127.811 20.4768 128.009 20.6266C128.482 20.9661 129.056 21.1352 129.638 21.1067V21.1067Z" fill="#3D3DD8"/>
<path d="M141.952 24.736V1.76535H147.593V24.736H141.952Z" fill="#3D3DD8"/>
<path d="M156.114 5.20265C155.843 5.46583 155.522 5.67214 155.17 5.8095C154.818 5.94687 154.442 6.01253 154.064 6.00265C153.686 6.01182 153.309 5.94586 152.956 5.80856C152.603 5.67126 152.28 5.46534 152.007 5.20265C151.743 4.94795 151.533 4.64264 151.39 4.30497C151.247 3.9673 151.173 3.60419 151.173 3.23732C151.173 2.87044 151.247 2.50733 151.39 2.16966C151.533 1.83199 151.743 1.52668 152.007 1.27198C152.569 0.761353 153.301 0.478546 154.06 0.478546C154.819 0.478546 155.551 0.761353 156.114 1.27198C156.383 1.5223 156.596 1.8269 156.738 2.16568C156.881 2.50446 156.951 2.86971 156.942 3.23732C156.949 3.60467 156.878 3.96935 156.736 4.30786C156.593 4.64637 156.381 4.95119 156.114 5.20265V5.20265ZM151.251 24.736V7.40265H156.878V24.736H151.251Z" fill="#3D3DD8"/>
<path d="M160.44 24.736V7.40265H165.923V10.7466H166.035C166.336 9.67227 166.985 8.72833 167.879 8.06283C168.773 7.39732 169.862 7.04789 170.976 7.06932C172.27 7.06932 173.334 7.39021 174.17 8.03198C175.03 8.70921 175.608 9.68247 175.791 10.7626H175.903C176.228 9.66762 176.923 8.71951 177.868 8.07998C178.86 7.39841 180.04 7.04501 181.243 7.06932C182.938 7.06932 184.31 7.61332 185.358 8.70132C186.407 9.78932 186.932 11.2115 186.932 12.968V24.7307H181.28V14.4C181.28 12.5635 180.47 11.6453 178.85 11.6453C178.51 11.6295 178.171 11.69 177.857 11.8224C177.543 11.9549 177.263 12.1558 177.037 12.4107C176.57 12.9832 176.332 13.7094 176.369 14.448V24.7307H170.994V14.3307C170.994 13.4613 170.788 12.7955 170.374 12.3333C170.145 12.0954 169.867 11.9101 169.56 11.7904C169.252 11.6707 168.923 11.6193 168.593 11.64C168.25 11.6257 167.908 11.6884 167.592 11.8236C167.276 11.9588 166.994 12.163 166.767 12.4213C166.291 12.996 166.047 13.7286 166.083 14.4747V24.7253L160.44 24.736Z" fill="#3D3DD8"/>
<path d="M2.06833 12.4453V16.9787C6.91844 17.464 10.8528 18.824 14.8005 20.9467C12.0561 17.0453 7.66113 13.992 2.06833 12.4453Z" fill="#3D3DD8"/>
<path d="M23.798 24.616H35.902V20.184C29.9977 21.3787 26.1938 23.0907 23.798 24.616Z" fill="#3D3DD8"/>
<path d="M14.9203 24.616C12.4234 23.016 8.40116 21.2347 2.06833 20.0374V24.616H14.9203Z" fill="#3D3DD8"/>
<path d="M16.9168 18.5653C17.8693 19.8574 18.6881 21.2432 19.3605 22.7013C20.0307 21.2426 20.8487 19.8567 21.8015 18.5653C24.2425 15.2533 28.5629 11.2773 35.9099 9.312V1.68533C33.027 1.71999 20.7367 0.834659 18.9931 11.4267C17.2522 0.834659 4.95921 1.71999 2.07629 1.68533V9.12266C9.86522 11.0133 14.3959 15.144 16.9168 18.5653Z" fill="#3D3DD8"/>
<path d="M23.9179 20.9467C27.6846 18.9333 31.3927 17.6 35.9021 17.0666V12.664C30.666 14.2693 26.5399 17.2213 23.9179 20.9467Z" fill="#3D3DD8"/>
</svg>
